<svg width="155" height="37" viewBox="0 0 155 37" fill="none" xmlns="http://www.w3.org/2000/svg">
<rect y="0.972656" width="154.781" height="35.7471" rx="9.48306" fill="white"/>
<rect y="0.972656" width="57.7433" height="35.7471" rx="9.48306" fill="url(#paint0_linear_3263_28255)"/>
<path fill-rule="evenodd" clip-rule="evenodd" d="M39.8913 28.9803H38.4983L38.4961 28.9817C37.0698 28.9817 35.7936 28.6768 34.7013 28.077C34.2802 27.8465 33.8901 27.5743 33.5417 27.2687C35.2308 25.9697 36.5411 24.2921 37.4357 22.2791C37.4849 22.1692 37.5319 22.06 37.5773 21.9509C37.6114 22.2742 37.6697 22.5677 37.75 22.8294C37.8932 23.2931 38.1128 23.6596 38.4029 23.9199C38.7021 24.1879 39.0634 24.3233 39.4769 24.3233H40.4268C41.3357 24.3233 42.1242 23.8511 42.771 22.9194C43.3989 22.0125 43.8791 20.9405 44.1972 19.7337C44.5146 18.5283 44.6759 17.4924 44.6759 16.655C44.6759 16.0417 44.6047 15.5007 44.4646 15.0469C44.3215 14.5825 44.1011 14.2195 43.8102 13.9692C43.5118 13.7118 43.1406 13.5813 42.7066 13.5813H41.7568C40.8464 13.5813 40.0632 14.0536 39.4285 14.9859C39.0823 15.4922 38.7794 16.0559 38.5264 16.6607C38.331 17.1294 38.1598 17.6371 38.0189 18.171C37.9462 18.4496 37.8871 18.6907 37.8401 18.9055C37.8377 18.9164 37.8352 18.9278 37.8325 18.9396C37.8179 19.0055 37.8003 19.0844 37.7848 19.1608C37.5675 20.1322 37.244 21.105 36.8229 22.053C35.9496 24.0177 34.6635 25.6478 33.0002 26.8964L32.9896 26.9035C32.8919 26.9772 32.7896 27.051 32.6858 27.1212C31.0975 28.2145 29.2183 28.769 27.1005 28.769H25.7076C24.2814 28.769 23.0051 28.4641 21.9129 27.8643C20.8215 27.2651 19.9656 26.4086 19.3679 25.3195C18.7681 24.2283 18.4643 22.9499 18.4643 21.5191C18.4643 19.4458 18.9135 17.396 19.7997 15.427C20.6836 13.4601 21.975 11.8307 23.6383 10.5835C25.2941 9.34127 27.2679 8.71094 29.5061 8.71094H30.8991C32.3253 8.71094 33.6023 9.01015 34.6945 9.60149C35.1285 9.83619 35.5277 10.1134 35.8822 10.4254C34.1924 11.7251 32.879 13.402 31.9761 15.4114C31.9329 15.5071 31.8905 15.6035 31.8489 15.7007C31.8148 15.3858 31.7565 15.0958 31.6762 14.8342C31.533 14.3698 31.3126 14.0075 31.0218 13.7565C30.7233 13.4991 30.3522 13.3686 29.9182 13.3686H28.9684C28.0587 13.3686 27.2748 13.8408 26.64 14.7732C26.0235 15.6766 25.5493 16.7486 25.2305 17.9582C24.9131 19.1629 24.7518 20.1797 24.7518 20.9802C24.7518 21.6141 24.8222 22.165 24.9623 22.6166C25.1055 23.0804 25.3251 23.4469 25.6152 23.7072C25.9144 23.9752 26.2757 24.1106 26.6893 24.1106H27.6391C28.548 24.1106 29.3372 23.6384 29.9833 22.7067C30.3219 22.2189 30.618 21.6814 30.865 21.1085C31.0793 20.6129 31.2626 20.079 31.4096 19.521L31.4149 19.4997C31.4277 19.4522 31.4399 19.4054 31.452 19.3586C31.5709 18.8899 31.6671 18.4439 31.7375 18.0327C31.9481 17.2343 32.2352 16.4296 32.5904 15.639C33.4743 13.6721 34.7657 12.042 36.4336 10.792C36.5343 10.7161 36.6366 10.6431 36.7381 10.5736C38.3256 9.47741 40.1957 8.92223 42.2969 8.92223H43.6898C45.116 8.92223 46.393 9.22145 47.4852 9.81279C48.5759 10.4027 49.4318 11.2536 50.0294 12.3426C50.6293 13.4353 50.9331 14.7144 50.9331 16.1431C50.9331 18.2341 50.4892 20.2931 49.6136 22.2643C48.7403 24.2297 47.4542 25.8591 45.7909 27.1077C44.1336 28.35 42.1484 28.9803 39.8913 28.9803ZM9.35551 28.5845H15.5664L19.6868 8.73131H14.5363L14.4454 9.01493C14.2432 9.6013 13.9152 10.1168 13.4608 10.5606C13.0063 11.0052 12.3246 11.3931 11.4157 11.7235C10.5068 12.0546 9.30476 12.3432 7.81035 12.5885L6.81055 17.3816L10.8704 16.6442C11.193 16.5875 11.4256 16.6258 11.5672 16.7577C11.7081 16.8902 11.749 17.1079 11.6884 17.41L9.35551 28.5845Z" fill="white"/>
<path d="M68.2753 26.8457H64.0992L69.5235 10.769H74.6966L80.121 26.8457H75.9448L72.1689 14.8195H72.0433L68.2753 26.8457ZM67.718 20.5186H76.4472V23.4702H67.718V20.5186ZM82.3156 26.8457V14.7881H86.1542V26.8457H82.3156ZM84.2388 13.383C83.6998 13.383 83.2366 13.2051 82.8494 12.8492C82.4621 12.4881 82.2685 12.0537 82.2685 11.5461C82.2685 11.0437 82.4621 10.6146 82.8494 10.2587C83.2366 9.8976 83.6998 9.71706 84.2388 9.71706C84.7831 9.71706 85.2462 9.8976 85.6283 10.2587C86.0155 10.6146 86.2092 11.0437 86.2092 11.5461C86.2092 12.0537 86.0155 12.4881 85.6283 12.8492C85.2462 13.2051 84.7831 13.383 84.2388 13.383ZM88.5137 13.9246V10.769H102.102V13.9246H97.2271V26.8457H93.3964V13.9246H88.5137ZM108.322 27.0734C107.055 27.0734 105.967 26.8143 105.056 26.2962C104.151 25.7729 103.452 25.0454 102.96 24.1139C102.473 23.1771 102.23 22.0912 102.23 20.8562C102.23 19.6159 102.473 18.53 102.96 17.5984C103.452 16.6617 104.151 15.9342 105.056 15.4161C105.967 14.8928 107.055 14.6311 108.322 14.6311C109.588 14.6311 110.674 14.8928 111.579 15.4161C112.49 15.9342 113.189 16.6617 113.675 17.5984C114.167 18.53 114.413 19.6159 114.413 20.8562C114.413 22.0912 114.167 23.1771 113.675 24.1139C113.189 25.0454 112.49 25.7729 111.579 26.2962C110.674 26.8143 109.588 27.0734 108.322 27.0734ZM108.345 24.1767C108.806 24.1767 109.196 24.0354 109.515 23.7528C109.834 23.4702 110.077 23.0777 110.245 22.5753C110.418 22.0729 110.504 21.492 110.504 20.8326C110.504 20.1628 110.418 19.5766 110.245 19.0742C110.077 18.5718 109.834 18.1793 109.515 17.8967C109.196 17.6141 108.806 17.4728 108.345 17.4728C107.869 17.4728 107.466 17.6141 107.136 17.8967C106.812 18.1793 106.563 18.5718 106.391 19.0742C106.223 19.5766 106.139 20.1628 106.139 20.8326C106.139 21.492 106.223 22.0729 106.391 22.5753C106.563 23.0777 106.812 23.4702 107.136 23.7528C107.466 24.0354 107.869 24.1767 108.345 24.1767ZM122.45 27.0734C121.184 27.0734 120.095 26.8143 119.185 26.2962C118.279 25.7729 117.581 25.0454 117.089 24.1139C116.602 23.1771 116.359 22.0912 116.359 20.8562C116.359 19.6159 116.602 18.53 117.089 17.5984C117.581 16.6617 118.279 15.9342 119.185 15.4161C120.095 14.8928 121.184 14.6311 122.45 14.6311C123.717 14.6311 124.803 14.8928 125.708 15.4161C126.619 15.9342 127.317 16.6617 127.804 17.5984C128.296 18.53 128.542 19.6159 128.542 20.8562C128.542 22.0912 128.296 23.1771 127.804 24.1139C127.317 25.0454 126.619 25.7729 125.708 26.2962C124.803 26.8143 123.717 27.0734 122.45 27.0734ZM122.474 24.1767C122.934 24.1767 123.324 24.0354 123.643 23.7528C123.963 23.4702 124.206 23.0777 124.373 22.5753C124.546 22.0729 124.633 21.492 124.633 20.8326C124.633 20.1628 124.546 19.5766 124.373 19.0742C124.206 18.5718 123.963 18.1793 123.643 17.8967C123.324 17.6141 122.934 17.4728 122.474 17.4728C121.998 17.4728 121.595 17.6141 121.265 17.8967C120.94 18.1793 120.692 18.5718 120.519 19.0742C120.352 19.5766 120.268 20.1628 120.268 20.8326C120.268 21.492 120.352 22.0729 120.519 22.5753C120.692 23.0777 120.94 23.4702 121.265 23.7528C121.595 24.0354 121.998 24.1767 122.474 24.1767ZM134.789 10.769V26.8457H130.95V10.769H134.789ZM148.201 18.4698L144.677 18.564C144.64 18.3128 144.541 18.0904 144.378 17.8967C144.216 17.6979 144.004 17.5435 143.742 17.4336C143.486 17.3184 143.188 17.2609 142.848 17.2609C142.403 17.2609 142.023 17.3498 141.709 17.5278C141.401 17.7057 141.249 17.9464 141.254 18.25C141.249 18.4855 141.343 18.6896 141.537 18.8623C141.735 19.035 142.089 19.1737 142.596 19.2783L144.92 19.7179C146.124 19.9482 147.018 20.3302 147.605 20.864C148.196 21.3978 148.494 22.1043 148.5 22.9835C148.494 23.8104 148.248 24.53 147.762 25.1423C147.28 25.7546 146.621 26.2308 145.783 26.571C144.946 26.9059 143.988 27.0734 142.91 27.0734C141.189 27.0734 139.831 26.7201 138.836 26.0136C137.847 25.3019 137.282 24.3494 137.141 23.1562L140.932 23.062C141.016 23.5016 141.233 23.8365 141.584 24.0668C141.934 24.2971 142.382 24.4122 142.926 24.4122C143.418 24.4122 143.818 24.3206 144.127 24.1375C144.436 23.9543 144.593 23.7109 144.598 23.4074C144.593 23.1353 144.472 22.9181 144.237 22.7559C144.001 22.5884 143.633 22.4576 143.13 22.3634L141.026 21.963C139.817 21.7432 138.917 21.3376 138.326 20.7463C137.735 20.1497 137.442 19.3908 137.447 18.4698C137.442 17.6638 137.656 16.9757 138.09 16.4052C138.525 15.8296 139.142 15.39 139.943 15.0864C140.744 14.7829 141.688 14.6311 142.777 14.6311C144.41 14.6311 145.697 14.9739 146.639 15.6595C147.581 16.3398 148.102 17.2766 148.201 18.4698Z" fill="#1C133C"/>
<defs>
<linearGradient id="paint0_linear_3263_28255" x1="0" y1="0.972656" x2="62.5748" y2="22.9854" gradientUnits="userSpaceOnUse">
<stop stop-color="#AE92FF"/>
<stop offset="0.0001" stop-color="#DC90FF"/>
<stop offset="0.830884" stop-color="#7341FF"/>
<stop offset="1" stop-color="#3900DC"/>
</linearGradient>
</defs>
</svg>
