<svg width="155" height="37" viewBox="0 0 155 37" fill="none" xmlns="http://www.w3.org/2000/svg">
<rect y="0.972656" width="154.781" height="35.7471" rx="9.48306" fill="#1C133C"/>
<rect y="0.972656" width="57.7433" height="35.7471" rx="9.48306" fill="url(#paint0_linear_3263_10406)"/>
<path fill-rule="evenodd" clip-rule="evenodd" d="M39.8913 28.9803H38.4983L38.4961 28.9817C37.0698 28.9817 35.7936 28.6768 34.7013 28.077C34.2802 27.8465 33.8901 27.5743 33.5417 27.2687C35.2308 25.9697 36.5411 24.2921 37.4357 22.2791C37.4849 22.1692 37.5319 22.06 37.5773 21.9509C37.6114 22.2742 37.6697 22.5677 37.75 22.8294C37.8932 23.2931 38.1128 23.6596 38.4029 23.9199C38.7021 24.1879 39.0634 24.3233 39.4769 24.3233H40.4268C41.3357 24.3233 42.1242 23.8511 42.771 22.9194C43.3989 22.0125 43.8791 20.9405 44.1972 19.7337C44.5146 18.5283 44.6759 17.4924 44.6759 16.655C44.6759 16.0417 44.6047 15.5007 44.4646 15.0469C44.3215 14.5825 44.1011 14.2195 43.8102 13.9692C43.5118 13.7118 43.1406 13.5813 42.7066 13.5813H41.7568C40.8464 13.5813 40.0632 14.0536 39.4285 14.9859C39.0823 15.4922 38.7794 16.0559 38.5264 16.6607C38.331 17.1294 38.1598 17.6371 38.0189 18.171C37.9462 18.4496 37.8871 18.6907 37.8401 18.9055C37.8377 18.9164 37.8352 18.9278 37.8325 18.9396C37.8179 19.0055 37.8003 19.0844 37.7848 19.1608C37.5675 20.1322 37.244 21.105 36.8229 22.053C35.9496 24.0177 34.6635 25.6478 33.0002 26.8964L32.9896 26.9035C32.8919 26.9772 32.7896 27.051 32.6858 27.1212C31.0975 28.2145 29.2183 28.769 27.1005 28.769H25.7076C24.2814 28.769 23.0051 28.4641 21.9129 27.8643C20.8215 27.2651 19.9656 26.4086 19.3679 25.3195C18.7681 24.2283 18.4643 22.9499 18.4643 21.5191C18.4643 19.4458 18.9135 17.396 19.7997 15.427C20.6836 13.4601 21.975 11.8307 23.6383 10.5835C25.2941 9.34127 27.2679 8.71094 29.5061 8.71094H30.8991C32.3253 8.71094 33.6023 9.01015 34.6945 9.60149C35.1285 9.83619 35.5277 10.1134 35.8822 10.4254C34.1924 11.7251 32.879 13.402 31.9761 15.4114C31.9329 15.5071 31.8905 15.6035 31.8489 15.7007C31.8148 15.3858 31.7565 15.0958 31.6762 14.8342C31.533 14.3698 31.3126 14.0075 31.0218 13.7565C30.7233 13.4991 30.3522 13.3686 29.9182 13.3686H28.9684C28.0587 13.3686 27.2748 13.8408 26.64 14.7732C26.0235 15.6766 25.5493 16.7486 25.2305 17.9582C24.9131 19.1629 24.7518 20.1797 24.7518 20.9802C24.7518 21.6141 24.8222 22.165 24.9623 22.6166C25.1055 23.0804 25.3251 23.4469 25.6152 23.7072C25.9144 23.9752 26.2757 24.1106 26.6893 24.1106H27.6391C28.548 24.1106 29.3372 23.6384 29.9833 22.7067C30.3219 22.2189 30.618 21.6814 30.865 21.1085C31.0793 20.6129 31.2626 20.079 31.4096 19.521L31.4149 19.4997C31.4277 19.4522 31.4399 19.4054 31.452 19.3586C31.5709 18.8899 31.6671 18.4439 31.7375 18.0327C31.9481 17.2343 32.2352 16.4296 32.5904 15.639C33.4743 13.6721 34.7657 12.042 36.4336 10.792C36.5343 10.7161 36.6366 10.6431 36.7381 10.5736C38.3256 9.47741 40.1957 8.92223 42.2969 8.92223H43.6898C45.116 8.92223 46.393 9.22145 47.4852 9.81279C48.5759 10.4027 49.4318 11.2536 50.0294 12.3426C50.6293 13.4353 50.9331 14.7144 50.9331 16.1431C50.9331 18.2341 50.4892 20.2931 49.6136 22.2643C48.7403 24.2297 47.4542 25.8591 45.7909 27.1077C44.1336 28.35 42.1484 28.9803 39.8913 28.9803ZM9.35551 28.5845H15.5664L19.6868 8.73131H14.5363L14.4454 9.01493C14.2432 9.6013 13.9152 10.1168 13.4608 10.5606C13.0063 11.0052 12.3246 11.3931 11.4157 11.7235C10.5068 12.0546 9.30476 12.3432 7.81035 12.5885L6.81055 17.3816L10.8704 16.6442C11.193 16.5875 11.4256 16.6258 11.5672 16.7577C11.7081 16.8902 11.749 17.1079 11.6884 17.41L9.35551 28.5845Z" fill="white"/>
<path d="M68.2753 26.8467H64.0992L69.5235 10.7699H74.6966L80.121 26.8467H75.9448L72.1689 14.8205H72.0433L68.2753 26.8467ZM67.718 20.5196H76.4472V23.4712H67.718V20.5196ZM82.3156 26.8467V14.7891H86.1542V26.8467H82.3156ZM84.2388 13.384C83.6998 13.384 83.2366 13.206 82.8494 12.8502C82.4621 12.4891 82.2685 12.0547 82.2685 11.5471C82.2685 11.0447 82.4621 10.6155 82.8494 10.2597C83.2366 9.89858 83.6998 9.71803 84.2388 9.71803C84.7831 9.71803 85.2462 9.89858 85.6283 10.2597C86.0155 10.6155 86.2092 11.0447 86.2092 11.5471C86.2092 12.0547 86.0155 12.4891 85.6283 12.8502C85.2462 13.206 84.7831 13.384 84.2388 13.384ZM88.5137 13.9256V10.7699H102.102V13.9256H97.2271V26.8467H93.3964V13.9256H88.5137ZM108.322 27.0743C107.055 27.0743 105.967 26.8153 105.056 26.2972C104.151 25.7738 103.452 25.0464 102.96 24.1149C102.473 23.1781 102.23 22.0922 102.23 20.8571C102.23 19.6169 102.473 18.5309 102.96 17.5994C103.452 16.6626 104.151 15.9352 105.056 15.4171C105.967 14.8938 107.055 14.6321 108.322 14.6321C109.588 14.6321 110.674 14.8938 111.579 15.4171C112.49 15.9352 113.189 16.6626 113.675 17.5994C114.167 18.5309 114.413 19.6169 114.413 20.8571C114.413 22.0922 114.167 23.1781 113.675 24.1149C113.189 25.0464 112.49 25.7738 111.579 26.2972C110.674 26.8153 109.588 27.0743 108.322 27.0743ZM108.345 24.1777C108.806 24.1777 109.196 24.0364 109.515 23.7538C109.834 23.4712 110.077 23.0787 110.245 22.5763C110.418 22.0739 110.504 21.493 110.504 20.8336C110.504 20.1637 110.418 19.5776 110.245 19.0752C110.077 18.5728 109.834 18.1803 109.515 17.8977C109.196 17.6151 108.806 17.4738 108.345 17.4738C107.869 17.4738 107.466 17.6151 107.136 17.8977C106.812 18.1803 106.563 18.5728 106.391 19.0752C106.223 19.5776 106.139 20.1637 106.139 20.8336C106.139 21.493 106.223 22.0739 106.391 22.5763C106.563 23.0787 106.812 23.4712 107.136 23.7538C107.466 24.0364 107.869 24.1777 108.345 24.1777ZM122.45 27.0743C121.184 27.0743 120.095 26.8153 119.185 26.2972C118.279 25.7738 117.581 25.0464 117.089 24.1149C116.602 23.1781 116.359 22.0922 116.359 20.8571C116.359 19.6169 116.602 18.5309 117.089 17.5994C117.581 16.6626 118.279 15.9352 119.185 15.4171C120.095 14.8938 121.184 14.6321 122.45 14.6321C123.717 14.6321 124.803 14.8938 125.708 15.4171C126.619 15.9352 127.317 16.6626 127.804 17.5994C128.296 18.5309 128.542 19.6169 128.542 20.8571C128.542 22.0922 128.296 23.1781 127.804 24.1149C127.317 25.0464 126.619 25.7738 125.708 26.2972C124.803 26.8153 123.717 27.0743 122.45 27.0743ZM122.474 24.1777C122.934 24.1777 123.324 24.0364 123.643 23.7538C123.963 23.4712 124.206 23.0787 124.373 22.5763C124.546 22.0739 124.633 21.493 124.633 20.8336C124.633 20.1637 124.546 19.5776 124.373 19.0752C124.206 18.5728 123.963 18.1803 123.643 17.8977C123.324 17.6151 122.934 17.4738 122.474 17.4738C121.998 17.4738 121.595 17.6151 121.265 17.8977C120.94 18.1803 120.692 18.5728 120.519 19.0752C120.352 19.5776 120.268 20.1637 120.268 20.8336C120.268 21.493 120.352 22.0739 120.519 22.5763C120.692 23.0787 120.94 23.4712 121.265 23.7538C121.595 24.0364 121.998 24.1777 122.474 24.1777ZM134.789 10.7699V26.8467H130.95V10.7699H134.789ZM148.201 18.4708L144.677 18.565C144.64 18.3138 144.541 18.0913 144.378 17.8977C144.216 17.6988 144.004 17.5445 143.742 17.4346C143.486 17.3194 143.188 17.2619 142.848 17.2619C142.403 17.2619 142.023 17.3508 141.709 17.5288C141.401 17.7067 141.249 17.9474 141.254 18.251C141.249 18.4865 141.343 18.6906 141.537 18.8633C141.735 19.036 142.089 19.1746 142.596 19.2793L144.92 19.7189C146.124 19.9492 147.018 20.3312 147.605 20.865C148.196 21.3988 148.494 22.1053 148.5 22.9845C148.494 23.8114 148.248 24.5309 147.762 25.1432C147.28 25.7555 146.621 26.2318 145.783 26.5719C144.946 26.9069 143.988 27.0743 142.91 27.0743C141.189 27.0743 139.831 26.7211 138.836 26.0146C137.847 25.3029 137.282 24.3504 137.141 23.1572L140.932 23.063C141.016 23.5026 141.233 23.8375 141.584 24.0678C141.934 24.2981 142.382 24.4132 142.926 24.4132C143.418 24.4132 143.818 24.3216 144.127 24.1384C144.436 23.9553 144.593 23.7119 144.598 23.4084C144.593 23.1363 144.472 22.9191 144.237 22.7568C144.001 22.5894 143.633 22.4585 143.13 22.3643L141.026 21.964C139.817 21.7442 138.917 21.3386 138.326 20.7472C137.735 20.1507 137.442 19.3918 137.447 18.4708C137.442 17.6648 137.656 16.9766 138.09 16.4062C138.525 15.8305 139.142 15.3909 139.943 15.0874C140.744 14.7839 141.688 14.6321 142.777 14.6321C144.41 14.6321 145.697 14.9749 146.639 15.6605C147.581 16.3408 148.102 17.2776 148.201 18.4708Z" fill="white"/>
<defs>
<linearGradient id="paint0_linear_3263_10406" x1="0" y1="0.972656" x2="62.5748" y2="22.9854" gradientUnits="userSpaceOnUse">
<stop stop-color="#AE92FF"/>
<stop offset="0.0001" stop-color="#DC90FF"/>
<stop offset="0.830884" stop-color="#7341FF"/>
<stop offset="1" stop-color="#3900DC"/>
</linearGradient>
</defs>
</svg>
